<svg width="24" height="24" viewBox="0 0 24 24" fill="none" xmlns="http://www.w3.org/2000/svg">
<g clip-path="url(#clip0_1307_41)">
<rect width="24" height="24" rx="12" fill="#FFF2E8"/>
<path d="M7.64323 26.5835C7.51471 26.6595 7.34817 26.6713 7.1436 26.6188C6.93904 26.5664 6.84332 26.5145 6.85644 26.4634C6.79352 26.2837 6.74666 26.0946 6.71587 25.8959C6.68509 25.6972 6.6638 25.5146 6.65202 25.3481C6.56823 24.4 6.64148 23.424 6.87176 22.4202C7.11517 21.3652 7.40972 20.3234 7.7554 19.2947C7.46034 19.3825 7.28067 19.4454 7.21641 19.4834C6.94624 19.6867 6.75935 19.884 6.65572 20.0754C6.58423 20.2479 6.40028 20.4868 6.10387 20.7923C5.99435 20.9005 5.90091 20.9992 5.82352 21.0883C5.72713 21.1454 5.6468 21.1929 5.58254 21.2309C5.32549 21.383 5.14945 21.3787 5.0544 21.2181C5.01637 21.1538 5.00098 21.0545 5.00821 20.92C5.02856 20.7345 5.0453 20.6161 5.05842 20.565C5.19686 19.9192 5.42152 19.3091 5.73239 18.7348C6.04326 18.1605 6.47181 17.7117 7.01804 17.3885C7.46787 17.1224 8.02587 16.9658 8.69205 16.9186L8.98525 16.0945C9.15448 15.6473 9.32371 15.2002 9.49294 14.7531C9.64315 14.2738 9.79337 13.7945 9.94359 13.3152C9.81507 13.3913 9.7895 13.3847 9.86688 13.2955C9.92525 13.1742 9.89017 13.1516 9.76165 13.2277L9.66526 13.2847C9.24756 13.5318 9.07673 13.7196 9.15277 13.8482C9.19079 13.9124 9.07766 14.0878 8.81338 14.3743C8.53009 14.6287 8.37238 14.7654 8.34025 14.7844L6.99757 16.0342C6.77266 16.1673 6.56515 16.0732 6.37505 15.7519C6.24787 15.6102 6.21052 15.4371 6.263 15.2326C6.27612 15.1814 6.29875 15.1463 6.33088 15.1273L7.16106 14.4409C7.33484 14.2948 7.57288 14.1105 7.87517 13.8883C8.17747 13.6661 8.42207 13.4563 8.60897 13.259L9.92112 12.2874L10.2103 12.1163C10.3356 11.5217 10.4734 10.9847 10.6236 10.5054C10.6688 10.4353 10.7426 10.4133 10.8449 10.4395C10.9282 10.4337 10.9764 10.4051 10.9895 10.354C11.0157 10.2517 11.0003 10.1524 10.9433 10.056C10.9184 9.94058 10.9351 9.82223 10.9935 9.70094C11.1627 9.25379 11.2874 8.76796 11.3675 8.24342C11.4797 7.69988 11.6174 7.1629 11.7808 6.63248L11.6362 6.71803C11.347 6.88912 11.0424 6.96087 10.7225 6.93329L10.5779 7.01884C10.3851 7.1329 10.1251 7.24334 9.79789 7.35017C9.48381 7.40586 9.30482 7.35993 9.26091 7.2124L9.07897 7.12484C9.04684 7.14385 9.00815 7.18843 8.9629 7.25858C8.93077 7.27759 8.88257 7.30611 8.81831 7.34413C8.68979 7.42017 8.36259 7.527 7.83671 7.66462C7.31084 7.80224 6.78497 7.93985 6.2591 8.07747C6.02829 8.12727 5.8165 8.2092 5.62371 8.32326C5.46306 8.41831 5.32208 8.43665 5.20079 8.37828L5.1044 8.43531C4.81977 8.90735 4.61185 9.39908 4.48064 9.91049C4.33042 10.3898 4.32774 10.8251 4.47259 11.2166C4.5165 11.3641 4.45812 11.4854 4.29747 11.5805C4.14993 11.6244 4.05421 11.5726 4.0103 11.425C3.80842 10.9372 3.77965 10.412 3.92398 9.84944C4.10044 9.26788 4.33098 8.74107 4.61561 8.26902C4.62873 8.21788 4.63529 8.19231 4.63529 8.19231C4.61628 8.16018 4.60678 8.14412 4.60678 8.14412C4.62124 7.87529 4.7321 7.54943 4.93935 7.16655C5.12759 6.75153 5.31515 6.44536 5.50205 6.24802C5.49616 6.16475 5.51584 6.08804 5.56109 6.01789C5.63847 5.92873 5.68373 5.85858 5.69685 5.80744C5.75522 5.68614 5.84867 5.58748 5.97719 5.51144C6.04145 5.47342 6.11522 5.45146 6.19849 5.44557C6.26275 5.40755 6.36865 5.36659 6.51618 5.32268C6.60669 5.18238 6.70014 5.08371 6.79653 5.02668C6.90604 4.91851 7.00899 4.83591 7.10539 4.77888C7.16965 4.74086 7.34931 4.67794 7.64438 4.59012C7.92044 4.47017 8.21483 4.49119 8.52757 4.65319C9.97719 5.27039 11.3374 5.3332 12.6082 4.84162C12.7557 4.79771 12.9645 4.67414 13.2347 4.47092C13.537 4.24869 13.7619 4.11562 13.9095 4.07171C14.2977 3.40822 14.5706 2.76963 14.728 2.15593C14.8972 1.70879 14.9219 1.34719 14.8019 1.07113C14.7639 1.00687 14.7931 0.946219 14.8895 0.889188C14.9669 0.800027 14.9961 0.739382 14.977 0.707251C14.9974 0.521697 15.0558 0.400405 15.1522 0.343374C15.4092 0.191294 15.54 0.265732 15.5446 0.566688L15.4441 1.27677C15.4822 1.34103 15.472 1.43381 15.4136 1.5551C15.1394 2.41138 14.9354 3.31291 14.8015 4.25969C14.6807 5.15533 14.4226 6.0021 14.0271 6.8C14.014 6.85114 13.9592 6.90523 13.8628 6.96226C13.7022 7.05731 13.4904 7.13924 13.2274 7.20805C12.9776 7.22571 12.8075 7.3047 12.717 7.445C12.4441 8.08359 12.1808 8.73825 11.9269 9.40897C11.6541 10.0476 11.3842 10.7278 11.1172 11.4497L11.7831 10.9255C11.8605 10.8364 11.8926 10.8174 11.8795 10.8685C11.8985 10.9006 11.9562 10.8882 12.0526 10.8312C12.1942 10.704 12.2811 10.6309 12.3133 10.6119C12.3585 10.5417 12.4454 10.4686 12.5739 10.3926C13.1143 9.98614 13.6093 9.64984 14.0592 9.3837C14.1877 9.30766 14.3323 9.22212 14.4929 9.12707C14.6536 9.03201 14.7916 8.97204 14.907 8.94714C14.9713 8.90912 14.9969 8.91568 14.9837 8.96682C14.9837 8.96682 15.0093 8.97338 15.0605 8.9865C15.1247 8.94848 15.1729 8.91997 15.205 8.90096C15.2182 8.84982 15.2474 8.78917 15.2926 8.71902C15.3247 8.70001 15.3729 8.67149 15.4372 8.63347C15.5015 8.59545 15.5592 8.583 15.6103 8.59612C15.8352 8.46305 15.9893 8.39357 16.0726 8.38768C16.2522 8.32476 16.3706 8.3415 16.4276 8.4379C16.5168 8.51528 16.4715 8.58543 16.2919 8.64835C16.2597 8.66736 16.2115 8.69587 16.1473 8.73389C16.0961 8.72077 16.0384 8.73322 15.9742 8.77124L15.6368 8.97085C15.3797 9.12293 15.0745 9.30353 14.7211 9.51264C14.3998 9.70274 14.104 9.8994 13.8339 10.1026C13.8017 10.1216 13.7762 10.1151 13.7571 10.0829C13.7191 10.0187 13.668 10.0056 13.6037 10.0436C13.6037 10.0436 13.5906 10.0947 13.5644 10.197C13.5191 10.2672 13.4804 10.3117 13.4483 10.3307C13.4162 10.3498 13.3935 10.3848 13.3804 10.436C13.3483 10.455 13.3001 10.4835 13.2358 10.5215L10.6095 12.7911L10.5898 12.8678C10.4324 13.4815 10.2494 14.0886 10.0408 14.6892C9.83217 15.2898 9.60752 15.8999 9.3668 16.5194C9.35368 16.5706 9.35006 16.6378 9.35595 16.7211C9.34283 16.7722 9.31364 16.8328 9.26839 16.903C10.0749 16.9464 10.8807 17.0986 11.6858 17.3597C12.5231 17.6017 13.223 17.7949 13.7855 17.9393C14.8916 18.1958 16.0735 18.1038 17.3311 17.6634C18.5888 17.223 19.5907 16.7169 20.337 16.1453C20.5881 15.9099 20.7531 15.6388 20.8318 15.332C20.9427 15.0061 20.9958 14.6927 20.9913 14.3918L20.9628 14.3436C20.9438 14.3114 20.9474 14.2442 20.9736 14.1419C21.032 14.0207 21.0962 13.9826 21.1664 14.0279C21.1985 14.0089 21.2044 14.0922 21.1841 14.2777C21.1958 14.4442 21.2017 14.5275 21.2017 14.5275C21.285 14.5216 21.3552 14.5669 21.4122 14.6633C21.4882 14.7918 21.5423 14.8466 21.5744 14.8275C21.6387 14.7895 21.6744 14.7033 21.6817 14.5689C21.721 14.4155 21.7312 14.3227 21.7122 14.2906C21.7136 14.0729 21.6828 13.8742 21.6198 13.6945C21.57 13.4637 21.5232 13.2746 21.4793 13.127C21.3476 12.6844 21.1391 12.2221 20.854 11.7402C20.5688 11.2582 20.2223 10.8559 19.8146 10.5333C19.3878 10.1785 18.9304 10.102 18.4426 10.3039C18.3783 10.3419 18.3272 10.3288 18.2892 10.2645C18.2511 10.2003 18.2518 10.0914 18.2912 9.93802C18.3305 9.7846 18.4079 9.69544 18.5233 9.67054C19.1076 9.41163 19.6226 9.47563 20.0684 9.86254C20.5273 10.1983 20.9184 10.6393 21.2415 11.1855C21.5267 11.6675 21.7541 12.1619 21.9239 12.6688C22.0058 12.8806 22.0746 13.1435 22.1303 13.4576C22.1991 13.7205 22.2197 14.012 22.1922 14.3319C22.5317 15.3457 22.4781 16.2449 22.0315 17.0297C21.617 17.7955 21.0241 18.4065 20.253 18.8627C19.5783 19.2619 18.8435 19.5231 18.0488 19.6463C17.2541 19.7694 16.5149 19.7297 15.831 19.527C15.1793 19.3052 14.5086 19.0514 13.8189 18.7654C13.1291 18.4795 12.4358 18.2607 11.7388 18.1091C11.3808 18.0173 11.0163 17.951 10.6452 17.9103C10.2551 17.8375 9.88327 17.9056 9.52983 18.1147C9.33705 18.2288 9.20196 18.3304 9.12458 18.4196C8.89243 18.687 8.67997 18.8778 8.48718 18.9919L7.89194 20.5152C7.73583 20.9113 7.6148 21.3299 7.52884 21.7711C7.44289 22.2124 7.34743 22.6376 7.24246 23.0467C7.22934 23.0979 7.2126 23.2162 7.19225 23.4018C7.22304 23.6004 7.22237 23.7093 7.19024 23.7283C7.12918 24.285 7.136 24.7364 7.2107 25.0826C7.22971 25.1147 7.31887 25.1921 7.47818 25.3148C7.65651 25.4695 7.75812 25.6046 7.78302 25.72L7.75931 26.4498C7.74619 26.5009 7.70749 26.5455 7.64323 26.5835Z" fill="#FF4D4F"/>
<path d="M14.0132 6.2207C13.9871 6.28906 13.9367 6.34603 13.8618 6.3916C13.7869 6.43392 13.6991 6.4681 13.5981 6.49414C13.5005 6.52018 13.3963 6.53971 13.2856 6.55273C13.175 6.5625 13.0708 6.56738 12.9731 6.56738C12.8039 6.56738 12.6753 6.52507 12.5874 6.44043C12.4995 6.35579 12.4556 6.19792 12.4556 5.9668C12.4556 5.87565 12.4686 5.79102 12.4946 5.71289C12.5239 5.63477 12.5532 5.56315 12.5825 5.49805C12.6151 5.43294 12.6444 5.37598 12.6704 5.32715C12.6997 5.27832 12.7144 5.236 12.7144 5.2002C12.7534 5.1709 12.8071 5.14486 12.8755 5.12207C12.9471 5.09603 13.0187 5.07487 13.0903 5.05859C13.1619 5.03906 13.2271 5.02441 13.2856 5.01465C13.3442 5.00488 13.3833 5 13.4028 5C13.5688 5 13.7056 5.0293 13.813 5.08789C13.9204 5.14648 13.9741 5.21322 13.9741 5.28809C13.9741 5.32389 13.9709 5.36296 13.9644 5.40527C13.9578 5.44434 13.9546 5.47852 13.9546 5.50781C13.9611 5.59245 13.9774 5.68685 14.0034 5.79102C14.0295 5.89193 14.0425 5.9847 14.0425 6.06934C14.0425 6.12793 14.0327 6.17839 14.0132 6.2207ZM14.2964 11.5674C14.2703 11.6064 14.2166 11.6488 14.1353 11.6943C14.0571 11.7367 13.9676 11.7773 13.8667 11.8164C13.7658 11.8522 13.6632 11.8815 13.5591 11.9043C13.4582 11.9271 13.3735 11.9385 13.3052 11.9385C13.1782 11.9255 13.0708 11.8962 12.9829 11.8506C12.895 11.805 12.8234 11.7432 12.7681 11.665C12.7127 11.5869 12.672 11.4958 12.646 11.3916C12.62 11.2874 12.6021 11.1702 12.5923 11.04C12.5923 10.9749 12.6021 10.9098 12.6216 10.8447C12.6444 10.7764 12.6558 10.7015 12.6558 10.6201C12.6558 10.529 12.6493 10.4378 12.6362 10.3467C12.6232 10.2523 12.6167 10.1595 12.6167 10.0684C12.6167 9.99349 12.6183 9.89746 12.6216 9.78027C12.6281 9.66309 12.6362 9.53613 12.646 9.39941C12.6558 9.2627 12.6672 9.12272 12.6802 8.97949C12.6965 8.83626 12.7127 8.70117 12.729 8.57422C12.7453 8.44727 12.7632 8.33496 12.7827 8.2373C12.8022 8.13639 12.8234 8.06315 12.8462 8.01758C12.9015 7.90365 12.9715 7.82064 13.0562 7.76855C13.1408 7.71647 13.2336 7.69043 13.3345 7.69043C13.4647 7.69043 13.5737 7.71647 13.6616 7.76855C13.7495 7.82064 13.8195 7.89551 13.8716 7.99316C13.9269 8.09082 13.966 8.20964 13.9888 8.34961C14.0116 8.48633 14.0229 8.63932 14.0229 8.80859C14.0229 8.88346 14.0197 8.95671 14.0132 9.02832C14.0067 9.09994 14.0034 9.16992 14.0034 9.23828C14.0034 9.375 14.0164 9.51009 14.0425 9.64355C14.0718 9.77702 14.1027 9.9056 14.1353 10.0293C14.1711 10.153 14.2036 10.2718 14.2329 10.3857C14.2622 10.4997 14.2769 10.6038 14.2769 10.6982C14.2769 10.7275 14.2752 10.7617 14.272 10.8008C14.2687 10.8366 14.2671 10.8691 14.2671 10.8984C14.2671 11.0189 14.2785 11.1182 14.3013 11.1963C14.3241 11.2712 14.3354 11.3395 14.3354 11.4014C14.3354 11.46 14.3224 11.5153 14.2964 11.5674Z" fill="black"/>
<path d="M12.0942 10.21C12.1203 10.3141 12.1398 10.4004 12.1528 10.4688C12.1659 10.5371 12.1724 10.5973 12.1724 10.6494C12.1724 10.695 12.1659 10.734 12.1528 10.7666C12.1431 10.7992 12.1235 10.8317 12.0942 10.8643C12.0682 10.8936 12.0324 10.9245 11.9868 10.957C11.9412 10.9896 11.8843 11.027 11.8159 11.0693C11.7476 11.1117 11.6906 11.1507 11.645 11.1865C11.6027 11.2191 11.562 11.2484 11.5229 11.2744C11.4839 11.2972 11.4432 11.3151 11.4009 11.3281C11.3586 11.3411 11.3065 11.3477 11.2446 11.3477C11.1144 11.3477 11.0054 11.307 10.9175 11.2256C10.8296 11.1442 10.7856 11.0254 10.7856 10.8691C10.7856 10.8236 10.7873 10.7699 10.7905 10.708C10.7938 10.6462 10.7954 10.5827 10.7954 10.5176C10.7954 10.4329 10.7905 10.3564 10.7808 10.2881C10.771 10.2165 10.7482 10.1807 10.7124 10.1807C10.6896 10.1807 10.6473 10.1921 10.5854 10.2148C10.5269 10.2344 10.4585 10.262 10.3804 10.2979C10.3055 10.3304 10.2257 10.3662 10.1411 10.4053C10.0565 10.4411 9.97673 10.4769 9.90186 10.5127C9.83024 10.5452 9.76839 10.5745 9.71631 10.6006C9.66423 10.6234 9.6333 10.6364 9.62354 10.6396C9.59749 10.6462 9.57145 10.651 9.54541 10.6543C9.51937 10.6576 9.48844 10.6592 9.45264 10.6592C9.40706 10.6592 9.35824 10.6576 9.30615 10.6543C9.25407 10.651 9.20036 10.6494 9.14502 10.6494C9.03109 10.6494 8.92041 10.6624 8.81299 10.6885C8.70882 10.7113 8.60628 10.7373 8.50537 10.7666C8.40771 10.7926 8.31006 10.8187 8.2124 10.8447C8.118 10.8675 8.02523 10.8789 7.93408 10.8789C7.80713 10.8789 7.69971 10.8447 7.61182 10.7764C7.52718 10.7048 7.45557 10.6136 7.39697 10.5029C7.33838 10.389 7.29118 10.262 7.25537 10.1221C7.22282 9.97884 7.1984 9.83561 7.18213 9.69238C7.16585 9.5459 7.15446 9.40755 7.14795 9.27734C7.14469 9.14714 7.14307 9.03483 7.14307 8.94043C7.14307 8.88184 7.14958 8.82161 7.1626 8.75977C7.17887 8.69792 7.19515 8.6377 7.21143 8.5791C7.23096 8.52051 7.24723 8.46517 7.26025 8.41309C7.27653 8.35775 7.28467 8.30566 7.28467 8.25684C7.28467 8.18197 7.28141 8.10547 7.2749 8.02734C7.26839 7.94922 7.26514 7.86947 7.26514 7.78809C7.26514 7.66764 7.2863 7.53743 7.32861 7.39746C7.37419 7.25423 7.41976 7.111 7.46533 6.96777C7.49788 6.86686 7.52393 6.77897 7.54346 6.7041C7.56299 6.62598 7.58903 6.56087 7.62158 6.50879C7.65739 6.45671 7.70459 6.41764 7.76318 6.3916C7.82503 6.3623 7.9113 6.34766 8.02197 6.34766C8.04801 6.34766 8.09196 6.35254 8.15381 6.3623C8.21566 6.37207 8.28564 6.38509 8.36377 6.40137C8.44515 6.41764 8.52816 6.43717 8.61279 6.45996C8.70068 6.47949 8.78206 6.50228 8.85693 6.52832C8.93506 6.55436 9.00179 6.58203 9.05713 6.61133C9.11247 6.63737 9.14827 6.66341 9.16455 6.68945C9.18408 6.72526 9.1971 6.76432 9.20361 6.80664C9.21012 6.84896 9.21338 6.8929 9.21338 6.93848C9.21338 7.00684 9.20687 7.07682 9.19385 7.14844C9.18408 7.22005 9.17269 7.28841 9.15967 7.35352C9.14665 7.41862 9.13363 7.47884 9.12061 7.53418C9.11084 7.58952 9.10596 7.63509 9.10596 7.6709C9.10596 7.70671 9.11084 7.74577 9.12061 7.78809C9.13037 7.8304 9.13525 7.87435 9.13525 7.91992C9.12874 7.96875 9.11572 8.01758 9.09619 8.06641C9.07992 8.11523 9.06852 8.15918 9.06201 8.19824C9.06201 8.26986 9.06852 8.35286 9.08154 8.44727C9.09782 8.54167 9.10596 8.63607 9.10596 8.73047C9.10596 8.7793 9.10107 8.82487 9.09131 8.86719C9.0848 8.90625 9.07666 8.94531 9.06689 8.98438C9.05713 9.02018 9.04736 9.05273 9.0376 9.08203C9.03109 9.11133 9.02946 9.13737 9.03271 9.16016C9.03597 9.22852 9.03923 9.28385 9.04248 9.32617C9.04899 9.36849 9.05876 9.40104 9.07178 9.42383C9.08805 9.44661 9.10758 9.46126 9.13037 9.46777C9.15316 9.47428 9.18408 9.47754 9.22314 9.47754C9.35986 9.47754 9.49658 9.47428 9.6333 9.46777C9.77002 9.46126 9.90023 9.44987 10.0239 9.43359C10.1509 9.41732 10.2664 9.39779 10.3706 9.375C10.478 9.34896 10.5692 9.31641 10.644 9.27734C10.6733 9.24805 10.6929 9.19759 10.7026 9.12598C10.7157 9.05436 10.7222 8.97949 10.7222 8.90137C10.7254 8.81999 10.7238 8.74512 10.7173 8.67676C10.714 8.60514 10.7124 8.55632 10.7124 8.53027C10.7124 8.19824 10.701 7.91829 10.6782 7.69043C10.6554 7.46257 10.644 7.29167 10.644 7.17773C10.644 7.14844 10.6522 7.10938 10.6685 7.06055C10.6847 7.01172 10.7075 6.96452 10.7368 6.91895C10.7694 6.87337 10.8101 6.83431 10.8589 6.80176C10.9077 6.76595 10.9663 6.74805 11.0347 6.74805C11.103 6.74805 11.1681 6.75944 11.23 6.78223C11.2918 6.80176 11.3455 6.82943 11.3911 6.86523C11.4399 6.89779 11.479 6.93685 11.5083 6.98242C11.5376 7.02474 11.5522 7.07031 11.5522 7.11914C11.5522 7.1582 11.549 7.20378 11.5425 7.25586C11.536 7.30794 11.5327 7.3584 11.5327 7.40723C11.5327 7.49512 11.5409 7.59277 11.5571 7.7002C11.5734 7.80436 11.5913 7.90853 11.6108 8.0127C11.6336 8.11686 11.6532 8.21777 11.6694 8.31543C11.6857 8.41309 11.6938 8.49772 11.6938 8.56934C11.6938 8.64421 11.6873 8.71582 11.6743 8.78418C11.6613 8.84928 11.6548 8.91439 11.6548 8.97949C11.6548 9.05762 11.6678 9.1276 11.6938 9.18945C11.7199 9.2513 11.7492 9.3099 11.7817 9.36523C11.8175 9.41732 11.8534 9.46615 11.8892 9.51172C11.925 9.55729 11.9526 9.60286 11.9722 9.64844C11.9982 9.71354 12.0177 9.79818 12.0308 9.90234C12.047 10.0065 12.0682 10.109 12.0942 10.21Z" fill="black"/>
<path d="M21.1016 16.6567C21.0993 16.6795 21.0924 16.6989 21.0811 16.7148C21.0719 16.7285 21.0605 16.7456 21.0469 16.7661C21.0355 16.7843 21.0252 16.8071 21.0161 16.8345C21.007 16.8618 21.0024 16.8983 21.0024 16.9438C21.0024 16.9621 21.0036 16.978 21.0059 16.9917C21.0081 17.0054 21.0093 17.0213 21.0093 17.0396C21.0093 17.1079 20.9933 17.1615 20.9614 17.2002C20.9318 17.2367 20.8908 17.2663 20.8384 17.2891C20.7882 17.3118 20.729 17.3301 20.6606 17.3438C20.5923 17.3551 20.5216 17.3711 20.4487 17.3916C20.3963 17.4053 20.3405 17.4212 20.2812 17.4395C20.222 17.4577 20.1639 17.4668 20.1069 17.4668C20.0112 17.4668 19.9429 17.4395 19.9019 17.3848C19.8631 17.3301 19.8381 17.2617 19.8267 17.1797C19.8153 17.0954 19.8118 17.0054 19.8164 16.9097C19.821 16.814 19.8198 16.7251 19.813 16.6431C19.8084 16.5588 19.7913 16.4893 19.7617 16.4346C19.7344 16.3799 19.682 16.3525 19.6045 16.3525C19.5726 16.3525 19.5396 16.3582 19.5054 16.3696C19.4712 16.381 19.4382 16.3947 19.4062 16.4106C19.3766 16.4243 19.3481 16.4391 19.3208 16.4551C19.2957 16.4688 19.2752 16.479 19.2593 16.4858C19.2251 16.5018 19.1852 16.5189 19.1396 16.5371C19.0964 16.5531 19.0542 16.5713 19.0132 16.5918C18.9722 16.61 18.9368 16.6317 18.9072 16.6567C18.8799 16.6795 18.8662 16.7069 18.8662 16.7388C18.8662 16.7912 18.8776 16.8584 18.9004 16.9404C18.9255 17.0202 18.9517 17.1011 18.979 17.1831C19.0063 17.2629 19.0314 17.3346 19.0542 17.3984C19.0793 17.46 19.0918 17.4987 19.0918 17.5146C19.0918 17.5306 19.0884 17.5465 19.0815 17.5625C19.0747 17.5762 19.0713 17.5933 19.0713 17.6138C19.0713 17.6457 19.0747 17.6799 19.0815 17.7163C19.0907 17.7528 19.0998 17.7915 19.1089 17.8325C19.1203 17.8713 19.1305 17.9123 19.1396 17.9556C19.1488 17.9966 19.1533 18.0387 19.1533 18.082C19.1533 18.0957 19.1522 18.1253 19.1499 18.1709C19.1476 18.2142 19.1442 18.262 19.1396 18.3145C19.1351 18.3646 19.1283 18.4136 19.1191 18.4614C19.1123 18.507 19.1032 18.54 19.0918 18.5605C19.0804 18.5788 19.0667 18.5924 19.0508 18.6016C19.0348 18.6107 19.0177 18.6187 18.9995 18.6255C18.9813 18.63 18.9619 18.6357 18.9414 18.6426C18.9209 18.6471 18.8993 18.6562 18.8765 18.6699C18.8263 18.7018 18.7899 18.7314 18.7671 18.7588C18.7443 18.7839 18.7215 18.8066 18.6987 18.8271C18.6782 18.8454 18.6509 18.8602 18.6167 18.8716C18.5848 18.883 18.5335 18.8887 18.4629 18.8887C18.3649 18.8887 18.2829 18.8773 18.2168 18.8545C18.1507 18.8294 18.0972 18.7918 18.0562 18.7417C18.0151 18.6893 17.9855 18.6232 17.9673 18.5435C17.9513 18.4637 17.9434 18.3691 17.9434 18.2598C17.9434 18.1846 17.9491 18.1105 17.9604 18.0376C17.9741 17.9624 17.9889 17.8872 18.0049 17.812C18.0231 17.7368 18.0402 17.6616 18.0562 17.5864C18.0744 17.509 18.0881 17.4292 18.0972 17.3472C18.1086 17.2378 18.1177 17.1204 18.1245 16.9951C18.1336 16.8675 18.1382 16.749 18.1382 16.6396C18.1382 16.5485 18.1313 16.446 18.1177 16.332C18.1131 16.3047 18.1051 16.2773 18.0938 16.25C18.0824 16.2227 18.0767 16.1965 18.0767 16.1714C18.0767 16.1372 18.0801 16.1007 18.0869 16.062C18.096 16.0233 18.1051 15.9845 18.1143 15.9458C18.1257 15.9071 18.1359 15.8683 18.145 15.8296C18.1541 15.7886 18.1598 15.7487 18.1621 15.71C18.1621 15.6712 18.1564 15.6405 18.145 15.6177C18.1359 15.5926 18.1313 15.5675 18.1313 15.5425C18.1313 15.4787 18.1439 15.4297 18.1689 15.3955C18.194 15.359 18.2202 15.334 18.2476 15.3203C18.2749 15.3044 18.2988 15.2952 18.3193 15.293C18.3398 15.2907 18.3455 15.2896 18.3364 15.2896C18.423 15.2896 18.4902 15.3078 18.5381 15.3442C18.5882 15.3784 18.6247 15.4217 18.6475 15.4741C18.6725 15.5265 18.6885 15.5835 18.6953 15.645C18.7021 15.7043 18.7078 15.7601 18.7124 15.8125C18.717 15.8649 18.7227 15.9093 18.7295 15.9458C18.7386 15.98 18.7568 15.9971 18.7842 15.9971C18.8024 15.9971 18.8252 15.9891 18.8525 15.9731C18.8822 15.9572 18.9095 15.9401 18.9346 15.9219C18.9596 15.9036 18.979 15.8888 18.9927 15.8774C19.0063 15.8638 19.0086 15.8615 18.9995 15.8706L18.9927 15.8774C18.995 15.8774 18.9972 15.8763 18.9995 15.874C19.0063 15.8672 19.0143 15.8615 19.0234 15.8569C19.0143 15.8615 19.0098 15.8638 19.0098 15.8638H19.0063C19.036 15.841 19.0656 15.8182 19.0952 15.7954C19.1203 15.7772 19.1476 15.7578 19.1772 15.7373C19.2069 15.7145 19.2342 15.6963 19.2593 15.6826C19.298 15.6576 19.3413 15.6405 19.3892 15.6313C19.437 15.62 19.4803 15.6017 19.519 15.5767C19.5532 15.5516 19.5874 15.5243 19.6216 15.4946C19.6558 15.465 19.6865 15.4411 19.7139 15.4229C19.7412 15.4115 19.7743 15.4001 19.813 15.3887C19.854 15.3773 19.8973 15.3682 19.9429 15.3613C19.9884 15.3522 20.0329 15.3454 20.0762 15.3408C20.1195 15.334 20.1582 15.3306 20.1924 15.3306C20.2243 15.3306 20.2516 15.3363 20.2744 15.3477C20.2972 15.3568 20.3188 15.3693 20.3394 15.3853C20.3599 15.4012 20.3815 15.4172 20.4043 15.4331C20.4294 15.4491 20.459 15.4616 20.4932 15.4707C20.5365 15.4844 20.5866 15.4946 20.6436 15.5015C20.7005 15.506 20.7529 15.5186 20.8008 15.5391C20.8509 15.5596 20.8931 15.5938 20.9272 15.6416C20.9614 15.6872 20.9774 15.759 20.9751 15.8569C20.9751 15.9002 20.9797 15.939 20.9888 15.9731C20.9979 16.0073 21.007 16.0381 21.0161 16.0654C21.0275 16.0928 21.0378 16.119 21.0469 16.144C21.056 16.1691 21.0605 16.1953 21.0605 16.2227C21.0605 16.2477 21.0583 16.2751 21.0537 16.3047C21.0514 16.332 21.0503 16.3605 21.0503 16.3901C21.0503 16.4357 21.0583 16.4847 21.0742 16.5371C21.0924 16.5872 21.1016 16.6271 21.1016 16.6567Z" fill="black"/>
<path d="M17.6733 18.0889C17.6779 18.1344 17.6825 18.1766 17.687 18.2153C17.6938 18.2541 17.6973 18.2894 17.6973 18.3213C17.6973 18.3577 17.695 18.3851 17.6904 18.4033C17.6859 18.4215 17.6779 18.4375 17.6665 18.4512C17.6574 18.4648 17.6437 18.4797 17.6255 18.4956C17.6095 18.5116 17.589 18.5355 17.564 18.5674C17.5366 18.6107 17.5093 18.6562 17.4819 18.7041C17.4569 18.752 17.4261 18.7952 17.3896 18.834C17.3555 18.8727 17.3145 18.9046 17.2666 18.9297C17.221 18.957 17.1652 18.9707 17.0991 18.9707C17.0581 18.9707 17.0137 18.9673 16.9658 18.9604C16.9202 18.9559 16.8735 18.9502 16.8257 18.9434C16.7801 18.9365 16.7345 18.9297 16.689 18.9229C16.6457 18.9183 16.6058 18.916 16.5693 18.916C16.4121 18.916 16.2526 18.9137 16.0908 18.9092C15.9313 18.9023 15.7798 18.8818 15.6362 18.8477C15.5884 18.834 15.5382 18.8226 15.4858 18.8135C15.4334 18.8021 15.381 18.7896 15.3286 18.7759C15.2762 18.7622 15.2261 18.7463 15.1782 18.728C15.1304 18.7075 15.0894 18.6836 15.0552 18.6562C14.9572 18.5583 14.8786 18.4512 14.8193 18.335C14.7624 18.2188 14.7168 18.0877 14.6826 17.9419C14.6507 17.7961 14.6279 17.6343 14.6143 17.4565C14.6006 17.2788 14.5892 17.0794 14.5801 16.8584C14.5755 16.7809 14.5675 16.7069 14.5562 16.6362C14.5448 16.5656 14.5391 16.5109 14.5391 16.4722C14.5391 16.4539 14.547 16.4255 14.563 16.3867C14.5812 16.348 14.5938 16.3115 14.6006 16.2773C14.612 16.2272 14.6165 16.1782 14.6143 16.1304C14.6143 16.0802 14.6165 16.0495 14.6211 16.0381C14.6279 16.0221 14.6416 16.0039 14.6621 15.9834C14.6849 15.9606 14.7088 15.9367 14.7339 15.9116C14.7612 15.8866 14.7874 15.8615 14.8125 15.8364C14.8398 15.8091 14.8626 15.7829 14.8809 15.7578C14.8968 15.735 14.9355 15.7077 14.9971 15.6758C15.0609 15.6416 15.1395 15.6051 15.2329 15.5664C15.3263 15.5277 15.4312 15.4901 15.5474 15.4536C15.6636 15.4149 15.7821 15.3807 15.9028 15.3511C16.0259 15.3192 16.1478 15.2941 16.2686 15.2759C16.3916 15.2554 16.5055 15.244 16.6104 15.2417C16.6536 15.2417 16.7015 15.2497 16.7539 15.2656C16.8086 15.2816 16.8621 15.3032 16.9146 15.3306C16.9692 15.3556 17.0216 15.3853 17.0718 15.4194C17.1219 15.4536 17.1641 15.4878 17.1982 15.522C17.2165 15.5402 17.2336 15.571 17.2495 15.6143C17.2655 15.6553 17.2837 15.6895 17.3042 15.7168C17.3543 15.7806 17.3885 15.8285 17.4067 15.8604C17.4272 15.8923 17.4398 15.9207 17.4443 15.9458C17.4512 15.9709 17.4535 15.9982 17.4512 16.0278C17.4489 16.0575 17.4512 16.103 17.458 16.1646C17.4626 16.2124 17.466 16.2523 17.4683 16.2842C17.4705 16.3161 17.4717 16.3457 17.4717 16.373C17.4717 16.4004 17.4717 16.4266 17.4717 16.4517C17.4717 16.4767 17.4717 16.5052 17.4717 16.5371C17.4717 16.6032 17.4546 16.6567 17.4204 16.6978C17.3862 16.7388 17.3395 16.7764 17.2803 16.8105C17.221 16.8447 17.1493 16.8778 17.0649 16.9097C16.9829 16.9416 16.894 16.9803 16.7983 17.0259C16.7186 17.0646 16.6331 17.092 16.542 17.1079C16.4508 17.1239 16.3665 17.1318 16.2891 17.1318C16.2777 17.1318 16.2686 17.1318 16.2617 17.1318C16.2549 17.1318 16.2458 17.1296 16.2344 17.125C16.2184 17.1227 16.1911 17.1273 16.1523 17.1387C16.1136 17.1501 16.0692 17.1637 16.019 17.1797C15.9689 17.1934 15.9142 17.207 15.855 17.2207C15.798 17.2321 15.7422 17.2378 15.6875 17.2378C15.651 17.2378 15.6157 17.2435 15.5815 17.2549C15.5496 17.264 15.5212 17.2765 15.4961 17.2925C15.471 17.3084 15.4505 17.3244 15.4346 17.3403C15.4209 17.3563 15.4141 17.3711 15.4141 17.3848C15.4141 17.4645 15.4277 17.5283 15.4551 17.5762C15.4847 17.624 15.5166 17.6605 15.5508 17.6855C15.5918 17.7152 15.6374 17.7357 15.6875 17.7471C15.7445 17.7721 15.7992 17.7892 15.8516 17.7983C15.904 17.8052 15.9564 17.8086 16.0088 17.8086C16.0954 17.8086 16.1854 17.8018 16.2788 17.7881C16.3745 17.7744 16.4827 17.7676 16.6035 17.7676C16.6605 17.7676 16.7083 17.7744 16.7471 17.7881C16.7881 17.8018 16.8314 17.8086 16.877 17.8086C16.9248 17.8086 16.9727 17.804 17.0205 17.7949C17.0684 17.7858 17.1139 17.7756 17.1572 17.7642C17.2005 17.7528 17.2415 17.7425 17.2803 17.7334C17.3213 17.7243 17.3589 17.7197 17.3931 17.7197C17.4819 17.7197 17.5457 17.7505 17.5845 17.812C17.6255 17.8713 17.6551 17.9635 17.6733 18.0889ZM16.3506 16.5166C16.3551 16.5052 16.3586 16.4927 16.3608 16.479C16.3631 16.4653 16.3643 16.4517 16.3643 16.438C16.3643 16.3696 16.3574 16.3092 16.3438 16.2568C16.3324 16.2021 16.3175 16.1566 16.2993 16.1201C16.2834 16.0814 16.2651 16.0529 16.2446 16.0347C16.2241 16.0142 16.2059 16.0039 16.1899 16.0039C16.1466 16.0039 16.0817 16.013 15.9951 16.0312C15.9085 16.0472 15.8208 16.0677 15.7319 16.0928C15.6431 16.1178 15.5622 16.1452 15.4893 16.1748C15.4186 16.2044 15.3753 16.2318 15.3594 16.2568C15.348 16.2751 15.34 16.3024 15.3354 16.3389C15.3309 16.373 15.3286 16.4129 15.3286 16.4585C15.3286 16.5542 15.3343 16.6283 15.3457 16.6807C15.3594 16.7331 15.3822 16.7593 15.4141 16.7593C15.4346 16.7593 15.4574 16.7559 15.4824 16.749C15.5075 16.7422 15.5314 16.7354 15.5542 16.7285C15.5793 16.7194 15.6009 16.7114 15.6191 16.7046C15.6396 16.6978 15.6556 16.6932 15.667 16.6909C15.7171 16.6818 15.7786 16.675 15.8516 16.6704C15.9245 16.6659 15.9951 16.659 16.0635 16.6499C16.1341 16.6385 16.1956 16.6237 16.248 16.6055C16.3027 16.585 16.3369 16.5553 16.3506 16.5166Z" fill="black"/>
<path d="M14.4707 15.2827C14.4548 15.3078 14.424 15.3328 14.3784 15.3579C14.3351 15.383 14.2827 15.4069 14.2212 15.4297C14.1619 15.4525 14.097 15.4741 14.0264 15.4946C13.958 15.5151 13.8908 15.5334 13.8247 15.5493C13.7609 15.563 13.7005 15.5744 13.6436 15.5835C13.5889 15.5926 13.5467 15.5972 13.5171 15.5972C13.4487 15.5972 13.3975 15.5698 13.3633 15.5151C13.3291 15.4604 13.304 15.3921 13.2881 15.3101C13.2744 15.228 13.2653 15.1403 13.2607 15.0469C13.2562 14.9512 13.2471 14.8623 13.2334 14.7803C13.222 14.6982 13.2026 14.6299 13.1753 14.5752C13.1479 14.5205 13.1035 14.4932 13.042 14.4932C13.0306 14.4932 13.0044 14.4989 12.9634 14.5103C12.9224 14.5194 12.8791 14.5296 12.8335 14.541C12.7788 14.5547 12.7196 14.5706 12.6558 14.5889C12.6466 14.6003 12.6398 14.6185 12.6353 14.6436C12.6307 14.6663 12.6261 14.6925 12.6216 14.7222C12.6193 14.7518 12.617 14.7814 12.6147 14.811C12.6147 14.8384 12.6147 14.8623 12.6147 14.8828C12.6147 14.9261 12.6273 14.9705 12.6523 15.0161C12.6774 15.0594 12.7048 15.1061 12.7344 15.1562C12.7663 15.2041 12.7948 15.2554 12.8198 15.3101C12.8472 15.3625 12.8608 15.4183 12.8608 15.4775C12.8608 15.5117 12.8643 15.5413 12.8711 15.5664C12.8802 15.5892 12.8893 15.6097 12.8984 15.6279C12.9076 15.6462 12.9155 15.6621 12.9224 15.6758C12.9315 15.6895 12.936 15.7031 12.936 15.7168C12.936 15.7214 12.9338 15.7339 12.9292 15.7544C12.9269 15.7726 12.9235 15.7943 12.9189 15.8193C12.9167 15.8444 12.9144 15.8706 12.9121 15.8979C12.9098 15.923 12.9087 15.9447 12.9087 15.9629C12.9087 15.988 12.9121 16.0028 12.9189 16.0073C12.9281 16.0096 12.944 16.0107 12.9668 16.0107C12.9987 16.0107 13.042 16.0039 13.0967 15.9902C13.1514 15.9766 13.2061 15.9629 13.2607 15.9492C13.3177 15.9333 13.3701 15.9185 13.418 15.9048C13.4658 15.8911 13.4989 15.8843 13.5171 15.8843C13.6196 15.8843 13.7256 15.8945 13.835 15.915C13.9443 15.9333 14.0343 15.9538 14.105 15.9766C14.1483 15.9925 14.1825 16.0028 14.2075 16.0073C14.2349 16.0096 14.2542 16.021 14.2656 16.0415C14.2793 16.0597 14.2873 16.0928 14.2896 16.1406C14.2941 16.1862 14.2964 16.2603 14.2964 16.3628C14.2964 16.4198 14.2952 16.4699 14.293 16.5132C14.293 16.5565 14.2793 16.5929 14.252 16.6226C14.2269 16.6522 14.1813 16.675 14.1152 16.6909C14.0514 16.7046 13.9569 16.7114 13.8315 16.7114C13.7586 16.7114 13.6982 16.7171 13.6504 16.7285C13.6048 16.7399 13.5615 16.7524 13.5205 16.7661C13.4795 16.7775 13.4373 16.7889 13.394 16.8003C13.353 16.8117 13.3006 16.8174 13.2368 16.8174C13.2254 16.8174 13.2061 16.814 13.1787 16.8071C13.1514 16.8003 13.132 16.7969 13.1206 16.7969C13.1092 16.7969 13.1001 16.8037 13.0933 16.8174C13.0864 16.8311 13.0807 16.8481 13.0762 16.8687C13.0716 16.8892 13.0682 16.9108 13.0659 16.9336C13.0636 16.9564 13.0625 16.978 13.0625 16.9985C13.0625 17.0532 13.0659 17.1136 13.0728 17.1797C13.0819 17.2458 13.0921 17.3096 13.1035 17.3711C13.1149 17.4303 13.1252 17.4839 13.1343 17.5317C13.1434 17.5796 13.1502 17.6138 13.1548 17.6343C13.1616 17.6844 13.165 17.7368 13.165 17.7915C13.165 17.8439 13.1685 17.894 13.1753 17.9419C13.1867 18.0148 13.2015 18.0991 13.2197 18.1948C13.2402 18.2905 13.2505 18.3817 13.2505 18.4683C13.2505 18.605 13.2026 18.7098 13.1069 18.7827C13.0135 18.8556 12.8494 18.9001 12.6147 18.916C12.5897 18.9183 12.568 18.9217 12.5498 18.9263C12.5316 18.9308 12.5145 18.9354 12.4985 18.9399C12.4826 18.9468 12.4666 18.9525 12.4507 18.957C12.4347 18.9616 12.4154 18.9639 12.3926 18.9639C12.3037 18.9639 12.2228 18.9434 12.1499 18.9023C12.0793 18.8613 12.0189 18.8089 11.9688 18.7451C11.9209 18.679 11.8833 18.6061 11.856 18.5264C11.8309 18.4466 11.8184 18.3669 11.8184 18.2871C11.8184 18.2074 11.8218 18.1253 11.8286 18.041C11.8354 17.9567 11.8389 17.8724 11.8389 17.7881V17.6548C11.8389 17.6138 11.84 17.5762 11.8423 17.542C11.8446 17.5055 11.848 17.4691 11.8525 17.4326C11.8571 17.3962 11.8628 17.3574 11.8696 17.3164C11.8787 17.2731 11.889 17.223 11.9004 17.166C11.9004 17.1637 11.9038 17.1512 11.9106 17.1284C11.9198 17.1034 11.9289 17.0749 11.938 17.043C11.9494 17.0088 11.9585 16.9735 11.9653 16.937C11.9744 16.9006 11.979 16.8675 11.979 16.8379C11.979 16.8014 11.9699 16.7775 11.9517 16.7661C11.9357 16.7524 11.9095 16.7456 11.873 16.7456C11.8548 16.7456 11.8354 16.7467 11.8149 16.749C11.7944 16.7513 11.7716 16.7524 11.7466 16.7524C11.717 16.7524 11.6851 16.7433 11.6509 16.7251C11.619 16.7069 11.5894 16.6818 11.562 16.6499C11.5347 16.618 11.5119 16.5804 11.4937 16.5371C11.4754 16.4915 11.4663 16.4425 11.4663 16.3901C11.4663 16.3491 11.4788 16.3195 11.5039 16.3013C11.5312 16.2808 11.5654 16.2671 11.6064 16.2603C11.6475 16.2511 11.6908 16.2454 11.7363 16.2432C11.7819 16.2386 11.8252 16.2318 11.8662 16.2227C11.9072 16.2113 11.9403 16.1942 11.9653 16.1714C11.9927 16.1486 12.0063 16.1144 12.0063 16.0688C12.0063 16.0119 12.0018 15.9561 11.9927 15.9014C11.9836 15.8444 11.9722 15.7909 11.9585 15.7407C11.9471 15.6906 11.9368 15.645 11.9277 15.604C11.9186 15.5607 11.9141 15.5243 11.9141 15.4946C11.9141 15.3853 11.9186 15.2827 11.9277 15.187C11.9391 15.089 11.9448 14.9899 11.9448 14.8896C11.9448 14.8236 11.9391 14.7609 11.9277 14.7017C11.9186 14.6424 11.9141 14.5843 11.9141 14.5273C11.9141 14.4271 11.9437 14.3371 12.0029 14.2573C12.0645 14.1776 12.1408 14.1081 12.2319 14.0488C12.3254 13.9873 12.4279 13.9349 12.5396 13.8916C12.6512 13.8483 12.7583 13.813 12.8608 13.7856C12.9657 13.7583 13.0591 13.7389 13.1411 13.7275C13.2231 13.7139 13.2812 13.707 13.3154 13.707C13.4932 13.707 13.6413 13.7207 13.7598 13.748C13.8805 13.7731 13.9797 13.8164 14.0571 13.8779C14.1369 13.9372 14.1984 14.0169 14.2417 14.1172C14.285 14.2174 14.3192 14.3405 14.3442 14.4863C14.3534 14.5342 14.367 14.5854 14.3853 14.6401C14.4035 14.6925 14.4217 14.745 14.4399 14.7974C14.4582 14.8498 14.4741 14.9033 14.4878 14.958C14.5037 15.0104 14.5117 15.0605 14.5117 15.1084C14.5117 15.1403 14.5094 15.1711 14.5049 15.2007C14.5003 15.228 14.4889 15.2554 14.4707 15.2827Z" fill="black"/>
<path d="M11.4971 15.2827C11.4811 15.3078 11.4504 15.3328 11.4048 15.3579C11.3615 15.383 11.3091 15.4069 11.2476 15.4297C11.1883 15.4525 11.1234 15.4741 11.0527 15.4946C10.9844 15.5151 10.9172 15.5334 10.8511 15.5493C10.7873 15.563 10.7269 15.5744 10.6699 15.5835C10.6152 15.5926 10.5731 15.5972 10.5435 15.5972C10.4751 15.5972 10.4238 15.5698 10.3896 15.5151C10.3555 15.4604 10.3304 15.3921 10.3145 15.3101C10.3008 15.228 10.2917 15.1403 10.2871 15.0469C10.2826 14.9512 10.2734 14.8623 10.2598 14.7803C10.2484 14.6982 10.229 14.6299 10.2017 14.5752C10.1743 14.5205 10.1299 14.4932 10.0684 14.4932C10.057 14.4932 10.0308 14.4989 9.98975 14.5103C9.94873 14.5194 9.90544 14.5296 9.85986 14.541C9.80518 14.5547 9.74593 14.5706 9.68213 14.5889C9.67301 14.6003 9.66618 14.6185 9.66162 14.6436C9.65706 14.6663 9.65251 14.6925 9.64795 14.7222C9.64567 14.7518 9.64339 14.7814 9.64111 14.811C9.64111 14.8384 9.64111 14.8623 9.64111 14.8828C9.64111 14.9261 9.65365 14.9705 9.67871 15.0161C9.70378 15.0594 9.73112 15.1061 9.76074 15.1562C9.79264 15.2041 9.82113 15.2554 9.84619 15.3101C9.87354 15.3625 9.88721 15.4183 9.88721 15.4775C9.88721 15.5117 9.89062 15.5413 9.89746 15.5664C9.90658 15.5892 9.91569 15.6097 9.9248 15.6279C9.93392 15.6462 9.94189 15.6621 9.94873 15.6758C9.95785 15.6895 9.9624 15.7031 9.9624 15.7168C9.9624 15.7214 9.96012 15.7339 9.95557 15.7544C9.95329 15.7726 9.94987 15.7943 9.94531 15.8193C9.94303 15.8444 9.94076 15.8706 9.93848 15.8979C9.9362 15.923 9.93506 15.9447 9.93506 15.9629C9.93506 15.988 9.93848 16.0028 9.94531 16.0073C9.95443 16.0096 9.97038 16.0107 9.99316 16.0107C10.0251 16.0107 10.0684 16.0039 10.123 15.9902C10.1777 15.9766 10.2324 15.9629 10.2871 15.9492C10.3441 15.9333 10.3965 15.9185 10.4443 15.9048C10.4922 15.8911 10.5252 15.8843 10.5435 15.8843C10.646 15.8843 10.752 15.8945 10.8613 15.915C10.9707 15.9333 11.0607 15.9538 11.1313 15.9766C11.1746 15.9925 11.2088 16.0028 11.2339 16.0073C11.2612 16.0096 11.2806 16.021 11.292 16.0415C11.3057 16.0597 11.3136 16.0928 11.3159 16.1406C11.3205 16.1862 11.3228 16.2603 11.3228 16.3628C11.3228 16.4198 11.3216 16.4699 11.3193 16.5132C11.3193 16.5565 11.3057 16.5929 11.2783 16.6226C11.2533 16.6522 11.2077 16.675 11.1416 16.6909C11.0778 16.7046 10.9832 16.7114 10.8579 16.7114C10.785 16.7114 10.7246 16.7171 10.6768 16.7285C10.6312 16.7399 10.5879 16.7524 10.5469 16.7661C10.5059 16.7775 10.4637 16.7889 10.4204 16.8003C10.3794 16.8117 10.327 16.8174 10.2632 16.8174C10.2518 16.8174 10.2324 16.814 10.2051 16.8071C10.1777 16.8003 10.1584 16.7969 10.147 16.7969C10.1356 16.7969 10.1265 16.8037 10.1196 16.8174C10.1128 16.8311 10.1071 16.8481 10.1025 16.8687C10.098 16.8892 10.0946 16.9108 10.0923 16.9336C10.09 16.9564 10.0889 16.978 10.0889 16.9985C10.0889 17.0532 10.0923 17.1136 10.0991 17.1797C10.1082 17.2458 10.1185 17.3096 10.1299 17.3711C10.1413 17.4303 10.1515 17.4839 10.1606 17.5317C10.1698 17.5796 10.1766 17.6138 10.1812 17.6343C10.188 17.6844 10.1914 17.7368 10.1914 17.7915C10.1914 17.8439 10.1948 17.894 10.2017 17.9419C10.2131 18.0148 10.2279 18.0991 10.2461 18.1948C10.2666 18.2905 10.2769 18.3817 10.2769 18.4683C10.2769 18.605 10.229 18.7098 10.1333 18.7827C10.0399 18.8556 9.87581 18.9001 9.64111 18.916C9.61605 18.9183 9.5944 18.9217 9.57617 18.9263C9.55794 18.9308 9.54085 18.9354 9.5249 18.9399C9.50895 18.9468 9.493 18.9525 9.47705 18.957C9.4611 18.9616 9.44173 18.9639 9.41895 18.9639C9.33008 18.9639 9.24919 18.9434 9.17627 18.9023C9.10563 18.8613 9.04525 18.8089 8.99512 18.7451C8.94727 18.679 8.90967 18.6061 8.88232 18.5264C8.85726 18.4466 8.84473 18.3669 8.84473 18.2871C8.84473 18.2074 8.84814 18.1253 8.85498 18.041C8.86182 17.9567 8.86523 17.8724 8.86523 17.7881V17.6548C8.86523 17.6138 8.86637 17.5762 8.86865 17.542C8.87093 17.5055 8.87435 17.4691 8.87891 17.4326C8.88346 17.3962 8.88916 17.3574 8.896 17.3164C8.90511 17.2731 8.91536 17.223 8.92676 17.166C8.92676 17.1637 8.93018 17.1512 8.93701 17.1284C8.94613 17.1034 8.95524 17.0749 8.96436 17.043C8.97575 17.0088 8.98486 16.9735 8.9917 16.937C9.00081 16.9006 9.00537 16.8675 9.00537 16.8379C9.00537 16.8014 8.99626 16.7775 8.97803 16.7661C8.96208 16.7524 8.93587 16.7456 8.89941 16.7456C8.88119 16.7456 8.86182 16.7467 8.84131 16.749C8.8208 16.7513 8.79801 16.7524 8.77295 16.7524C8.74333 16.7524 8.71143 16.7433 8.67725 16.7251C8.64535 16.7069 8.61572 16.6818 8.58838 16.6499C8.56104 16.618 8.53825 16.5804 8.52002 16.5371C8.50179 16.4915 8.49268 16.4425 8.49268 16.3901C8.49268 16.3491 8.50521 16.3195 8.53027 16.3013C8.55762 16.2808 8.5918 16.2671 8.63281 16.2603C8.67383 16.2511 8.71712 16.2454 8.7627 16.2432C8.80827 16.2386 8.85156 16.2318 8.89258 16.2227C8.93359 16.2113 8.96663 16.1942 8.9917 16.1714C9.01904 16.1486 9.03271 16.1144 9.03271 16.0688C9.03271 16.0119 9.02816 15.9561 9.01904 15.9014C9.00993 15.8444 8.99854 15.7909 8.98486 15.7407C8.97347 15.6906 8.96322 15.645 8.9541 15.604C8.94499 15.5607 8.94043 15.5243 8.94043 15.4946C8.94043 15.3853 8.94499 15.2827 8.9541 15.187C8.96549 15.089 8.97119 14.9899 8.97119 14.8896C8.97119 14.8236 8.96549 14.7609 8.9541 14.7017C8.94499 14.6424 8.94043 14.5843 8.94043 14.5273C8.94043 14.4271 8.97005 14.3371 9.0293 14.2573C9.09082 14.1776 9.16715 14.1081 9.2583 14.0488C9.35173 13.9873 9.45426 13.9349 9.56592 13.8916C9.67757 13.8483 9.78467 13.813 9.88721 13.7856C9.99202 13.7583 10.0854 13.7389 10.1675 13.7275C10.2495 13.7139 10.3076 13.707 10.3418 13.707C10.5195 13.707 10.6676 13.7207 10.7861 13.748C10.9069 13.7731 11.006 13.8164 11.0835 13.8779C11.1632 13.9372 11.2248 14.0169 11.2681 14.1172C11.3114 14.2174 11.3455 14.3405 11.3706 14.4863C11.3797 14.5342 11.3934 14.5854 11.4116 14.6401C11.4299 14.6925 11.4481 14.745 11.4663 14.7974C11.4845 14.8498 11.5005 14.9033 11.5142 14.958C11.5301 15.0104 11.5381 15.0605 11.5381 15.1084C11.5381 15.1403 11.5358 15.1711 11.5312 15.2007C11.5267 15.228 11.5153 15.2554 11.4971 15.2827Z" fill="black"/>
<path d="M8.08936 14.9272C8.07113 14.9751 8.03581 15.015 7.9834 15.0469C7.93099 15.0765 7.86947 15.1004 7.79883 15.1187C7.73047 15.1369 7.65755 15.1506 7.58008 15.1597C7.5026 15.1665 7.42969 15.1699 7.36133 15.1699C7.24284 15.1699 7.15283 15.1403 7.09131 15.0811C7.02979 15.0218 6.99902 14.9113 6.99902 14.7495C6.99902 14.6857 7.00814 14.6265 7.02637 14.5718C7.04688 14.5171 7.06738 14.467 7.08789 14.4214C7.11068 14.3758 7.13119 14.3359 7.14941 14.3018C7.16992 14.2676 7.18018 14.238 7.18018 14.2129C7.20752 14.1924 7.24512 14.1742 7.29297 14.1582C7.3431 14.14 7.39323 14.1252 7.44336 14.1138C7.49349 14.1001 7.53906 14.0898 7.58008 14.083C7.62109 14.0762 7.64844 14.0728 7.66211 14.0728C7.77832 14.0728 7.87402 14.0933 7.94922 14.1343C8.02441 14.1753 8.06201 14.222 8.06201 14.2744C8.06201 14.2995 8.05973 14.3268 8.05518 14.3564C8.05062 14.3838 8.04834 14.4077 8.04834 14.4282C8.0529 14.4875 8.06429 14.5535 8.08252 14.6265C8.10075 14.6971 8.10986 14.762 8.10986 14.8213C8.10986 14.8623 8.10303 14.8976 8.08936 14.9272ZM8.2876 18.6699C8.26937 18.6973 8.23177 18.7269 8.1748 18.7588C8.12012 18.7884 8.05745 18.8169 7.98682 18.8442C7.91618 18.8693 7.8444 18.8898 7.77148 18.9058C7.70085 18.9217 7.6416 18.9297 7.59375 18.9297C7.50488 18.9206 7.42969 18.9001 7.36816 18.8682C7.30664 18.8363 7.25651 18.793 7.21777 18.7383C7.17904 18.6836 7.15055 18.6198 7.13232 18.5469C7.1141 18.474 7.10156 18.3919 7.09473 18.3008C7.09473 18.2552 7.10156 18.2096 7.11523 18.1641C7.13119 18.1162 7.13916 18.0638 7.13916 18.0068C7.13916 17.943 7.1346 17.8792 7.12549 17.8154C7.11637 17.7493 7.11182 17.6844 7.11182 17.6206C7.11182 17.5682 7.11296 17.501 7.11523 17.4189C7.11979 17.3369 7.12549 17.248 7.13232 17.1523C7.13916 17.0566 7.14714 16.9587 7.15625 16.8584C7.16764 16.7581 7.17904 16.6636 7.19043 16.5747C7.20182 16.4858 7.21436 16.4072 7.22803 16.3389C7.2417 16.2682 7.25651 16.217 7.27246 16.1851C7.3112 16.1053 7.36019 16.0472 7.41943 16.0107C7.47868 15.9743 7.54362 15.9561 7.61426 15.9561C7.7054 15.9561 7.78174 15.9743 7.84326 16.0107C7.90479 16.0472 7.95378 16.0996 7.99023 16.168C8.02897 16.2363 8.05631 16.3195 8.07227 16.4175C8.08822 16.5132 8.09619 16.6203 8.09619 16.7388C8.09619 16.7912 8.09391 16.8424 8.08936 16.8926C8.0848 16.9427 8.08252 16.9917 8.08252 17.0396C8.08252 17.1353 8.09163 17.2298 8.10986 17.3232C8.13037 17.4167 8.15202 17.5067 8.1748 17.5933C8.19987 17.6799 8.22266 17.763 8.24316 17.8428C8.26367 17.9225 8.27393 17.9954 8.27393 18.0615C8.27393 18.082 8.27279 18.106 8.27051 18.1333C8.26823 18.1584 8.26709 18.1812 8.26709 18.2017C8.26709 18.286 8.27506 18.3555 8.29102 18.4102C8.30697 18.4626 8.31494 18.5104 8.31494 18.5537C8.31494 18.5947 8.30583 18.6335 8.2876 18.6699Z" fill="black"/>
<path d="M6.68115 18.1812C6.68799 18.2723 6.6971 18.3566 6.7085 18.4341C6.72217 18.5116 6.729 18.5833 6.729 18.6494C6.729 18.7041 6.71989 18.7576 6.70166 18.8101C6.68571 18.8625 6.65609 18.908 6.61279 18.9468C6.57178 18.9878 6.51595 19.0208 6.44531 19.0459C6.37695 19.071 6.29036 19.0835 6.18555 19.0835C6.04427 19.0835 5.93262 19.0755 5.85059 19.0596C5.77083 19.0436 5.71159 19.0163 5.67285 18.9775C5.63411 18.9388 5.61019 18.8887 5.60107 18.8271C5.59196 18.7656 5.5874 18.6882 5.5874 18.5947C5.5874 18.556 5.58854 18.5161 5.59082 18.4751C5.59538 18.4341 5.59993 18.3919 5.60449 18.3486C5.51562 18.3737 5.42334 18.3965 5.32764 18.417C5.23421 18.4352 5.12256 18.4569 4.99268 18.4819C4.9471 18.4888 4.90381 18.5047 4.86279 18.5298C4.82178 18.5549 4.7819 18.5674 4.74316 18.5674C4.7181 18.5674 4.69076 18.564 4.66113 18.5571C4.63379 18.5503 4.60758 18.5469 4.58252 18.5469C4.52327 18.5469 4.46175 18.5571 4.39795 18.5776C4.33643 18.5981 4.28288 18.6084 4.2373 18.6084C4.19629 18.6084 4.14958 18.5981 4.09717 18.5776C4.04704 18.5571 3.98665 18.5469 3.91602 18.5469H3.79639C3.70524 18.5469 3.61523 18.5264 3.52637 18.4854C3.4375 18.4443 3.35775 18.3988 3.28711 18.3486C3.21647 18.2962 3.15837 18.2472 3.11279 18.2017C3.0695 18.1538 3.04785 18.1242 3.04785 18.1128C3.04329 18.106 3.03874 18.0866 3.03418 18.0547C3.02962 18.0228 3.02507 17.9886 3.02051 17.9521C3.01823 17.9157 3.01481 17.8815 3.01025 17.8496C3.00798 17.8177 3.00684 17.7972 3.00684 17.7881C3.00228 17.7539 3 17.7197 3 17.6855C3 17.6514 3 17.6183 3 17.5864C3 17.5181 3.00228 17.4531 3.00684 17.3916C3.01139 17.3278 3.01709 17.264 3.02393 17.2002C3.03076 17.1364 3.03646 17.0715 3.04102 17.0054C3.04557 16.9393 3.04785 16.8698 3.04785 16.7969C3.04785 16.7604 3.04671 16.724 3.04443 16.6875C3.04215 16.6488 3.04102 16.61 3.04102 16.5713C3.04102 16.5394 3.04329 16.5132 3.04785 16.4927C3.05469 16.4699 3.06152 16.4494 3.06836 16.4312C3.0752 16.4129 3.08203 16.3958 3.08887 16.3799C3.09798 16.3617 3.10482 16.3411 3.10938 16.3184C3.12077 16.291 3.12419 16.2603 3.11963 16.2261C3.11735 16.1896 3.12419 16.1554 3.14014 16.1235C3.14469 16.1053 3.15381 16.0871 3.16748 16.0688C3.18343 16.0483 3.20052 16.0267 3.21875 16.0039C3.23926 15.9811 3.25863 15.9583 3.27686 15.9355C3.29736 15.9128 3.31445 15.8888 3.32812 15.8638C3.34863 15.8273 3.36458 15.792 3.37598 15.7578C3.38965 15.7214 3.40218 15.6883 3.41357 15.6587C3.42497 15.6268 3.4375 15.5994 3.45117 15.5767C3.46484 15.5516 3.48193 15.5334 3.50244 15.522C3.51611 15.5129 3.5389 15.5049 3.5708 15.498C3.6027 15.4912 3.63802 15.4844 3.67676 15.4775C3.71549 15.4684 3.75537 15.4604 3.79639 15.4536C3.83968 15.4468 3.87956 15.4388 3.91602 15.4297C4.01855 15.4046 4.14274 15.3841 4.28857 15.3682C4.43669 15.3499 4.58138 15.3408 4.72266 15.3408C4.82292 15.3408 4.91178 15.3511 4.98926 15.3716C5.06673 15.3921 5.13851 15.416 5.20459 15.4434C5.27295 15.4684 5.33789 15.4946 5.39941 15.522C5.46322 15.5493 5.53158 15.5698 5.60449 15.5835C5.61589 15.4969 5.62386 15.3921 5.62842 15.269C5.63525 15.146 5.63867 15.0195 5.63867 14.8896C5.63867 14.8213 5.63525 14.7529 5.62842 14.6846C5.62386 14.6162 5.61702 14.5501 5.60791 14.4863C5.60107 14.4202 5.59424 14.3599 5.5874 14.3052C5.58284 14.2482 5.58057 14.1981 5.58057 14.1548C5.58057 14.1252 5.58854 14.0887 5.60449 14.0454C5.62044 13.9998 5.64209 13.9577 5.66943 13.9189C5.69906 13.8779 5.73324 13.8438 5.77197 13.8164C5.81299 13.7868 5.85742 13.772 5.90527 13.772C5.94173 13.772 5.98047 13.7799 6.02148 13.7959C6.0625 13.8096 6.1001 13.8278 6.13428 13.8506C6.16846 13.8711 6.19694 13.8962 6.21973 13.9258C6.24251 13.9531 6.25391 13.9805 6.25391 14.0078C6.25391 14.0374 6.24935 14.0671 6.24023 14.0967C6.23112 14.1263 6.22656 14.1605 6.22656 14.1992C6.23112 14.2334 6.24365 14.271 6.26416 14.312C6.28695 14.353 6.30176 14.394 6.30859 14.4351C6.32227 14.4875 6.3291 14.5592 6.3291 14.6504C6.33138 14.7415 6.33252 14.8429 6.33252 14.9546C6.3348 15.064 6.33822 15.179 6.34277 15.2998C6.34733 15.4206 6.35986 15.5368 6.38037 15.6484C6.38721 15.6895 6.3986 15.7259 6.41455 15.7578C6.43278 15.7874 6.45101 15.8182 6.46924 15.8501C6.48975 15.8797 6.50684 15.9128 6.52051 15.9492C6.53418 15.9834 6.54102 16.0256 6.54102 16.0757C6.54102 16.1167 6.53874 16.1611 6.53418 16.209C6.52962 16.2546 6.52734 16.3058 6.52734 16.3628C6.53418 16.495 6.54329 16.6362 6.55469 16.7866C6.56608 16.9347 6.57861 17.0874 6.59229 17.2446C6.60824 17.4019 6.62305 17.5602 6.63672 17.7197C6.65267 17.877 6.66748 18.0308 6.68115 18.1812ZM5.66602 16.4927C5.65462 16.479 5.6307 16.471 5.59424 16.4688C5.56006 16.4642 5.51904 16.4619 5.47119 16.4619C5.42334 16.4596 5.37093 16.4574 5.31396 16.4551C5.257 16.4505 5.20117 16.4425 5.14648 16.4312C5.11458 16.4243 5.08838 16.4163 5.06787 16.4072C5.04964 16.3981 5.03255 16.3901 5.0166 16.3833C5.00065 16.3742 4.98356 16.3674 4.96533 16.3628C4.9471 16.356 4.92432 16.3525 4.89697 16.3525C4.81038 16.3525 4.72607 16.3582 4.64404 16.3696C4.56429 16.3787 4.50163 16.3993 4.45605 16.4312C4.43327 16.4494 4.41048 16.4836 4.3877 16.5337C4.36719 16.5838 4.34896 16.6442 4.33301 16.7148C4.31706 16.7855 4.30452 16.8607 4.29541 16.9404C4.2863 17.0202 4.28174 17.0977 4.28174 17.1729C4.28174 17.321 4.29883 17.4258 4.33301 17.4873C4.36947 17.5488 4.43555 17.5796 4.53125 17.5796C4.57454 17.5796 4.62012 17.575 4.66797 17.5659C4.71582 17.5545 4.76253 17.5431 4.80811 17.5317C4.85596 17.5181 4.89925 17.5055 4.93799 17.4941C4.97673 17.4805 5.00977 17.4714 5.03711 17.4668C5.06217 17.4645 5.10661 17.46 5.17041 17.4531C5.23421 17.444 5.29915 17.4349 5.36523 17.4258C5.43359 17.4144 5.49512 17.403 5.5498 17.3916C5.60449 17.3802 5.63639 17.3677 5.64551 17.354C5.65234 17.3472 5.6569 17.3312 5.65918 17.3062C5.66374 17.2811 5.66602 17.2526 5.66602 17.2207C5.66602 17.1911 5.66488 17.1592 5.6626 17.125C5.66032 17.0885 5.65804 17.0555 5.65576 17.0259C5.65348 16.994 5.6512 16.9666 5.64893 16.9438C5.64665 16.9211 5.64551 16.9062 5.64551 16.8994C5.64551 16.8971 5.64779 16.8857 5.65234 16.8652C5.6569 16.8447 5.66146 16.8197 5.66602 16.79C5.67057 16.7604 5.67513 16.7285 5.67969 16.6943C5.68424 16.6602 5.68652 16.6283 5.68652 16.5986C5.68652 16.5531 5.67969 16.5177 5.66602 16.4927Z" fill="black"/>
</g>
<defs>
<clipPath id="clip0_1307_41">
<rect width="24" height="24" rx="12" fill="white"/>
</clipPath>
</defs>
</svg>
